# xmcd CD database file
#
# Track frame offsets:
#	150
#	13593
#	30977
#	56002
#	76135
#	90495
#	114362
#	140708
#
# Disc length: 2090 seconds
#
# Revision: 0
# Processed by: cddbd v1.5.2PL0 Copyright (c) Steve Scherf et al.
# Submitted via: CDex 1.51
#
DISCID=57082808
DTITLE=Thomas Jefferson and his Creole Jazz Band - Sleepy Time Down South
DYEAR=1900
DGENRE=Jazz
TTITLE0=Sleepy Time Down South (Vocal)
TTITLE1=Ting A Ling
TTITLE2=All Of Me (Vocal)
TTITLE3=Tiger Rag
TTITLE4=St. Louis Blues (Vocal)
TTITLE5=Bill Baley (Vocal)
TTITLE6=Mack The Knife (Vocal)
TTITLE7=Lime-House Blues
EXTD=
EXTT0=
EXTT1=
EXTT2=
EXTT3=
EXTT4=
EXTT5=
EXTT6=
EXTT7=
PLAYORDER=
